# xmcd CD database file
#
# Track frame offsets:
#	150
#	13823
#	26295
#	39930
#	61558
#	74458
#	89130
#	103370
#	115883
#	128190
#	141278
#	152498
#	165388
#	176315
#	187955
#	201990
#	214850
#	227638
#	241430
#	251735
#	265908
#	278508
#	290950
#	303355
#	314678
#
# Disc length: 4333 seconds
#
# Revision: 2
# Processed by: cddbd v1.5.2PL0 Copyright (c) Steve Scherf et al.
# Submitted via: CDex 1.51
#
DISCID=6d10eb19
DTITLE=Joe Liggins and The Honeydrippers - Joe Liggins and The Honeydrippers
DYEAR=1950
DGENRE=R&B-Jump/Swing
TTITLE0=Pink Champagne
TTITLE1=Ramblin' Blues
TTITLE2=Rag Mop
TTITLE3=Rhythm In The Barnyard
TTITLE4=Going Back To New Orleans
TTITLE5=I've Got A Right To Cry
TTITLE6=The Honeydripper
TTITLE7=I Just Can't Help Myself
TTITLE8=Don't Miss That Train
TTITLE9=Frankie Lee
TTITLE10=Brand New Deal In Mobile
TTITLE11=Little Joe's Boogie
TTITLE12=One Sweet Letter
TTITLE13=Whiskey, Gin And Wine
TTITLE14=Louisiana Woman
TTITLE15=Trying To Loose The Blues
TTITLE16=Shuffle Boogie Blues
TTITLE17=Rain, Rain, Rain
TTITLE18=The Flying Dutchman
TTITLE19=Tanya
TTITLE20=Blues For Tanya
TTITLE21=Feight Train Blues
TTITLE22=Whiskey, Women And Loaded Dice
TTITLE23=The Big Dipper
TTITLE24=Do You Love Me Pretty Baby?
EXTD=YEAR: 1950
EXTT0=\n\n\n
EXTT1=
EXTT2=
EXTT3=
EXTT4=
EXTT5=
EXTT6=
EXTT7=
EXTT8=
EXTT9=
EXTT10=
EXTT11=
EXTT12=
EXTT13=
EXTT14=
EXTT15=
EXTT16=
EXTT17=
EXTT18=
EXTT19=
EXTT20=
EXTT21=
EXTT22=
EXTT23=
EXTT24=
PLAYORDER=
